<?xml version="1.0" encoding="UTF-8"?>
<svg width="48px" height="48px" viewBox="0 0 48 48" version="1.1" xmlns="http://www.w3.org/2000/svg" xmlns:xlink="http://www.w3.org/1999/xlink">
    <!-- Generator: Sketch 47.1 (45422) - http://www.bohemiancoding.com/sketch -->
    <title>social-color-1_logo-dribbble</title>
    <desc>Created with Sketch.</desc>
    <defs></defs>
    <g id="Welcome" stroke="none" stroke-width="1" fill="none" fill-rule="evenodd">
        <g id="Landing-V.3" transform="translate(-223.000000, -884.000000)">
            <g id="Group-16" transform="translate(199.000000, 852.000000)">
                <g id="Group-17">
                    <g id="social-color-1_logo-dribbble" transform="translate(16.000000, 24.000000)">
                        <g id="Group">
                            <rect id="Rectangle-6" fill="#FFFFFF" opacity="0" x="0" y="0" width="64" height="64"></rect>
                            <path d="M32,56 C18.76634,56 8,45.23367 8,32 C8,18.76633 18.76634,8 32,8 C45.23366,8 56,18.76634 56,32 C56,45.23366 45.23367,56 32,56 Z M52.24043,35.28526 C51.53912,35.06387 45.89531,33.38064 39.47139,34.40894 C42.15266,41.77694 43.24381,47.77795 43.45387,49.02498 C48.05281,45.91529 51.32676,40.98922 52.24043,35.28526 Z M40.00759,50.90177 C39.70268,49.10322 38.51247,42.83507 35.63442,35.35612 C35.58934,35.37149 35.54428,35.38609 35.4992,35.4018 C23.93666,39.43087 19.78602,47.44934 19.41712,48.20349 C22.89291,50.91393 27.26098,52.53096 32,52.53096 C34.83974,52.53096 37.54627,51.95018 40.00759,50.90177 Z M16.77028,45.73798 C17.23465,44.94307 22.86075,35.62772 33.43322,32.21029 C33.70042,32.12393 33.96983,32.04278 34.24102,31.9664 C33.72644,30.80187 33.16592,29.63601 32.57902,28.48749 C22.34169,31.55125 12.40764,31.42328 11.51074,31.40487 C11.50446,31.61301 11.5003,31.82164 11.5003,32.03125 C11.50029,37.29642 13.49619,42.10373 16.77028,45.73798 Z M11.93331,27.83267 C12.8502,27.84478 21.29599,27.88145 30.885,25.33503 C27.48833,19.29696 23.82506,14.2205 23.28462,13.47935 C17.54951,16.18445 13.26262,21.47144 11.93331,27.83267 Z M27.1961,12.10142 C27.76274,12.86013 31.48593,17.93034 34.84513,24.10219 C42.13458,21.37003 45.22041,17.22231 45.58912,16.69716 C41.96901,13.48534 37.20873,11.53155 32,11.53155 C30.34599,11.53155 28.73766,11.72984 27.1961,12.10142 Z M47.86806,19.06771 C47.4359,19.65232 44.00072,24.05604 36.42122,27.15053 C36.89822,28.12698 37.35553,29.1201 37.78126,30.11981 C37.93215,30.47412 38.07911,30.82674 38.2229,31.17772 C45.04392,30.32002 51.8214,31.69465 52.49726,31.83759 C52.45215,26.99909 50.72316,22.55604 47.86806,19.06771 Z" id="Shape" fill="#EA4C89"></path>
                        </g>
                    </g>
                </g>
            </g>
        </g>
    </g>
</svg>