<?xml version="1.0" encoding="UTF-8"?>
<svg width="77px" height="65px" viewBox="0 0 77 65" version="1.1" xmlns="http://www.w3.org/2000/svg" xmlns:xlink="http://www.w3.org/1999/xlink">
    <!-- Generator: Sketch 42 (36781) - http://www.bohemiancoding.com/sketch -->
    <title>emoticons-color_silly copy</title>
    <desc>Created with Sketch.</desc>
    <defs>
        <rect id="path-1" x="0" y="0" width="98" height="98" rx="49"></rect>
    </defs>
    <g id="Welcome" stroke="none" stroke-width="1" fill="none" fill-rule="evenodd">
        <g id="Temporary-Landing" transform="translate(-474.000000, -74.000000)">
            <g id="Group-7" transform="translate(242.000000, 60.000000)">
                <g id="emoticons-color_silly-copy" transform="translate(221.000000, 0.000000)">
                    <mask id="mask-2" fill="white">
                        <use xlink:href="#path-1"></use>
                    </mask>
                    <use id="Mask-Copy" fill="#00B1AA" opacity="0" xlink:href="#path-1"></use>
                    <g id="Group-4" mask="url(#mask-2)">
                        <g transform="translate(12.564103, 15.579487)">
                            <g id="emoticons-color_silly" stroke-linecap="round" stroke-linejoin="round">
                                <g id="Group" stroke="#3B3F3E" stroke-width="3" fill="#A9480A">
                                    <path d="M25.2239751,40.6145444 C28.7205523,40.1456115 32.7538456,39.8782218 37.0483974,39.8782218 C41.4010554,39.8782218 45.4853372,40.1528961 49.0144524,40.6336892 C49.0133225,40.6201014 49.0122164,40.6065175 49.0111339,40.5929375 C45.3593541,39.4310149 41.839822,37.1275289 39.0345127,33.7842915 C38.3517692,32.9706294 37.7370223,32.1259998 37.1902606,31.2589194 C36.207647,31.9640885 35.1716101,32.6336957 34.0856918,33.260651 C31.0673698,35.00328 27.9563626,36.2474129 24.9225522,37.0033064 C25.2264406,38.1365755 25.3263486,39.3589891 25.2239751,40.6145444 Z M53.6493264,49.8731416 C49.3159922,50.8499723 43.4746952,51.4487017 37.0483974,51.4487017 C31.2169222,51.4487017 25.8671636,50.9556803 21.6887841,50.1344969 C23.5018821,51.3601798 24.6092947,52.997324 24.6092947,54.7956253 C24.6092947,58.5950461 19.665968,61.6750852 13.5680654,61.6750852 C7.47016277,61.6750852 2.52683601,58.5950461 2.52683601,54.7956253 C2.52683601,53.1196686 3.48869214,51.5836868 5.08721809,50.3902938 C3.51191104,48.2332514 3.05368352,45.3153093 3.69100797,42.3461158 C1.53097453,41.5065634 -7.10542736e-15,39.4081037 -7.10542736e-15,36.9522323 C-7.10542736e-15,34.197901 1.92570183,31.8931321 4.50478207,31.3096563 C0.191185145,23.519994 6.10069895,11.8120039 17.801907,5.05630831 C28.7785048,-1.2810334 40.9808883,-1.02563181 46.2384586,5.32920772 C52.3018846,4.45741937 59.1862606,7.13406533 63.9827185,12.8502612 C68.6692583,18.4354619 70.1519128,25.4798004 68.4343818,31.2286372 C71.2289941,31.6387116 73.374359,34.0450502 73.374359,36.9522323 C73.374359,39.1017758 72.2014908,40.9775089 70.460521,41.9749466 C71.171414,44.875203 70.8400255,47.7547994 69.4463545,49.954403 C71.4225499,51.1974565 72.6430525,52.9077336 72.6430525,54.7956253 C72.6430525,58.5950461 67.6997257,61.6750852 61.6018231,61.6750852 C55.5039206,61.6750852 50.5605938,58.5950461 50.5605938,54.7956253 C50.5605938,52.9118349 51.7757992,51.2048882 53.7444232,49.9625109 C53.7126367,49.9328903 53.6809373,49.9031005 53.6493264,49.8731416 Z" id="Combined-Shape"></path>
                                </g>
                            </g>
                            <g id="Group-3" transform="translate(14.885982, 23.155528)">
                                <path d="M42.7732311,9.8601715 L42.7732311,18.3379331 C42.7732311,27.3562817 35.5231758,35.5423171 26.5575308,36.6109977 C26.5575308,36.6109977 21.9836413,37.1897436 21.3866155,37.1897436 C19.4065144,37.1897436 16.2039729,36.6807666 16.2039729,36.6807666 C7.25476576,35.568648 1.5013768e-11,27.3508367 1.5013768e-11,18.3379331 L1.5013768e-11,11.7302906 C4.47261434,12.0263992 10.3094009,10.5079222 15.9668574,7.24158814 C19.6095902,5.1384554 22.661946,2.60861958 24.9024853,3.81072951e-12 C26.687808,2.11786756 29.3397956,4.30618956 32.5506782,6.15999352 C36.1899233,8.26111268 39.8423404,9.525591 42.7732311,9.8601715 Z" id="Combined-Shape" stroke="#363F3F" stroke-width="3" stroke-linecap="round" stroke-linejoin="round" fill="#FCDBC2"></path>
                                <g id="Group-2" transform="translate(7.035897, 23.117949)" fill="#FEBDAA">
                                    <ellipse id="Oval-13" cx="2.51282051" cy="2.73928406" rx="2.51282051" ry="2.51282051"></ellipse>
                                    <path d="M26.3600982,5.25210457 C27.7478907,5.25210457 28.8729187,4.12707651 28.8729187,2.73928406 C28.8729187,1.35149161 27.7478907,0.226463545 26.3600982,0.226463545 C24.9723058,0.226463545 23.8472777,1.35149161 23.8472777,2.73928406 C23.8472777,4.12707651 24.9723058,5.25210457 26.3600982,5.25210457 Z" id="Oval-13"></path>
                                </g>
                                <path d="M25.2438172,27.3946948 C25.0538298,27.3946948 24.8689279,27.3117841 24.7677799,27.1638841 C24.0840923,26.164454 22.8087681,25.5435051 21.4392557,25.5435051 C20.0697433,25.5435051 18.7944191,26.164454 18.1107316,27.1638841 C17.9606125,27.3834922 17.62506,27.4601293 17.3628216,27.3339689 C17.1003201,27.2080333 17.0093379,26.9276993 17.15972,26.7076414 C18.0379491,25.4233934 19.6777229,24.625641 21.4392557,24.625641 C23.2007886,24.625641 24.8405624,25.4233934 25.718786,26.7076414 C25.8691681,26.9276947 25.7781913,27.2080287 25.5156844,27.3339689 C25.4297932,27.3751993 25.3361367,27.3946948 25.2438172,27.3946948 L25.2438172,27.3946948 Z" id="Shape" stroke="#4A4A4A" fill="#4A4A4A" transform="translate(21.439254, 26.010205) scale(1, -1) translate(-21.439254, -26.010205) "></path>
                                <g id="Group-5" transform="translate(9.046154, 17.087179)" stroke="#4A4A4A" stroke-width="1.5" fill="#4A4A4A">
                                    <path d="M5.27881643,2.23137641 C5.16177096,2.23137641 5.04785858,2.17102751 4.98554439,2.06337423 C4.56434543,1.33591037 3.77865726,0.883934952 2.93494264,0.883934952 C2.09122802,0.883934952 1.30553984,1.33591037 0.88434089,2.06337423 C0.791857138,2.22322233 0.585133518,2.27900482 0.42357646,2.18717533 C0.261857346,2.09550954 0.205805973,1.89146036 0.298451782,1.73128489 C0.839501817,0.796508209 1.84971622,0.215841239 2.93494264,0.215841239 C4.02016905,0.215841239 5.03038346,0.796508209 5.57143012,1.73128489 C5.66407593,1.89145701 5.60802793,2.0955062 5.44630544,2.18717533 C5.39339054,2.2171861 5.33569159,2.23137641 5.27881643,2.23137641 L5.27881643,2.23137641 Z" id="Shape"></path>
                                    <path d="M24.3762523,2.23137641 C24.2592069,2.23137641 24.1452945,2.17102751 24.0829803,2.06337423 C23.6617813,1.33591037 22.8760932,0.883934952 22.0323785,0.883934952 C21.1886639,0.883934952 20.4029757,1.33591037 19.9817768,2.06337423 C19.889293,2.22322233 19.6825694,2.27900482 19.5210124,2.18717533 C19.3592932,2.09550954 19.3032419,1.89146036 19.3958877,1.73128489 C19.9369377,0.796508209 20.9471521,0.215841239 22.0323785,0.215841239 C23.117605,0.215841239 24.1278194,0.796508209 24.668866,1.73128489 C24.7615118,1.89145701 24.7054638,2.0955062 24.5437413,2.18717533 C24.4908264,2.2171861 24.4331275,2.23137641 24.3762523,2.23137641 L24.3762523,2.23137641 Z" id="Shape"></path>
                                </g>
                            </g>
                        </g>
                    </g>
                </g>
            </g>
        </g>
    </g>
</svg>